<svg width="963" height="768" viewBox="0 0 963 768" fill="none" xmlns="http://www.w3.org/2000/svg">
<path d="M713.483 487.957H242.164V16.6419H713.486V487.957H713.483ZM283.39 446.725H672.257V57.871H283.39V446.725Z" fill="black"/>
<path d="M655.713 336.51H561.044V431.149H655.713V336.51Z" fill="black"/>
<path d="M543.391 336.51H448.719V431.149H543.391V336.51Z" fill="black"/>
<path d="M655.812 227.071H561.147V321.736H655.812V227.071Z" fill="black"/>
<path d="M71 741.373V564.774H113.776L132.614 682.508L152.923 564.774H194.228V741.375H167.935L167.15 617.165C165.186 629.919 161.753 650.622 156.848 679.269C151.942 707.917 148.508 728.619 146.545 741.373H119.859L98.1766 616.38L97.3915 741.373H71Z" fill="black"/>
<path d="M210.401 741.373V564.774H284.082V589.301H246.113V637.376H272.996V662.493H246.113V716.846H284.082V741.373H210.401Z" fill="black"/>
<path d="M321.65 741.373V591.46H295.748V564.773H382.773V591.46H357.363V741.373H321.65Z" fill="black"/>
<path d="M373.175 741.373L411.341 564.773H442.933L481 741.373H445.779L438.518 703.601H415.462L408.594 741.373H373.175ZM417.914 681.625H436.163L427.235 616.086L417.914 681.625Z" fill="black"/>
<path d="M492.179 741.373V564.774H527.892V716.846H563.015V741.373H492.179Z" fill="black"/>
<path d="M575.2 741.373V564.774H610.913V631.784L638.58 564.774H678.511L642.505 637.082L681.16 741.375H644.075L617.388 660.628L610.913 677.307V741.373H575.2Z" fill="black"/>
<path d="M699.031 647.972C690.397 639.078 686.081 626.486 686.081 610.2C686.081 595.09 689.923 583.154 697.61 574.389C705.293 565.625 716.559 561.242 731.408 561.242C746.256 561.242 757.473 565.641 765.061 574.437C772.648 583.236 776.442 595.156 776.442 610.2C776.442 626.748 772.158 639.338 763.59 647.972C766.729 650.524 769.345 653.385 771.438 656.558C773.532 659.73 775.101 663.164 776.148 666.859C777.194 670.555 777.914 674.153 778.306 677.651C778.698 681.151 778.895 685.124 778.895 689.571C778.895 697.945 778.062 705.367 776.392 711.843C774.725 718.318 772.091 724.058 768.495 729.061C764.898 734.065 759.975 737.876 753.73 740.491C747.483 743.106 740.043 744.416 731.41 744.416C699.753 744.416 683.924 726.135 683.924 689.571C683.924 680.218 684.937 672.156 686.965 665.388C688.99 658.617 693.012 652.813 699.031 647.972ZM726.208 715.817C727.712 716.438 729.445 716.748 731.407 716.748C733.369 716.748 735.118 716.421 736.656 715.767C738.192 715.114 739.435 714.344 740.385 713.462C741.332 712.578 742.166 711.336 742.886 709.734C743.606 708.132 744.128 706.709 744.457 705.466C744.784 704.224 745.028 702.588 745.192 700.561C745.356 698.534 745.454 696.996 745.487 695.949C745.518 694.903 745.536 693.432 745.536 691.534C745.536 672.173 740.826 662.493 731.407 662.493C721.924 662.493 717.181 672.173 717.181 691.534C717.181 693.365 717.197 694.854 717.23 695.999C717.261 697.143 717.377 698.696 717.573 700.659C717.769 702.621 718.029 704.241 718.358 705.514C718.685 706.791 719.207 708.213 719.928 709.782C720.647 711.353 721.498 712.595 722.479 713.511C723.46 714.427 724.702 715.195 726.208 715.817ZM731.407 636.002C732.912 636.002 734.269 635.61 735.479 634.825C736.688 634.04 737.686 633.093 738.471 631.98C739.256 630.868 739.908 629.365 740.433 627.466C740.956 625.57 741.348 623.884 741.61 622.414C741.87 620.941 742.067 619.079 742.199 616.82C742.329 614.565 742.411 612.881 742.444 611.769C742.476 610.657 742.493 609.154 742.493 607.255C742.493 594.567 738.798 588.221 731.407 588.221C729.053 588.221 727.073 588.86 725.472 590.134C723.868 591.41 722.708 593.127 721.988 595.285C721.268 597.443 720.776 599.455 720.516 601.318C720.254 603.183 720.124 605.161 720.124 607.254C720.124 609.347 720.156 611.146 720.222 612.65C720.286 614.156 720.418 616.167 720.614 618.685C720.81 621.202 721.155 623.344 721.643 625.111C722.135 626.877 722.772 628.659 723.557 630.459C724.342 632.259 725.404 633.632 726.745 634.579C728.086 635.527 729.641 636.002 731.407 636.002Z" fill="black"/>
<path d="M790 690.846L826.202 683.881C826.202 687.478 826.267 690.65 826.398 693.398C826.529 696.145 826.872 699.138 827.428 702.374C827.983 705.612 828.736 708.26 829.685 710.322C830.633 712.381 831.974 714.116 833.706 715.52C835.439 716.928 837.484 717.63 839.838 717.63C846.902 717.63 850.434 713.116 850.434 704.09C850.434 691.728 843.469 679.432 829.536 667.201L818.45 657.782C814.918 654.839 812.106 652.385 810.012 650.423C807.919 648.461 805.449 645.812 802.605 642.476C799.759 639.141 797.535 635.92 795.934 632.813C794.33 629.706 792.957 625.962 791.813 621.578C790.667 617.197 790.095 612.552 790.095 607.647C790.095 593.322 794.641 581.991 803.733 573.651C812.823 565.312 824.891 561.142 839.935 561.142C852.428 561.142 863.056 565.591 871.821 574.486C880.585 583.381 884.969 594.108 884.969 606.666L884.871 607.941C884.871 608.792 884.871 609.773 884.871 610.884L847.981 615.986C847.981 615.266 848.029 614.139 848.129 612.601C848.225 611.064 848.275 609.804 848.275 608.823C848.275 606.469 848.111 604.211 847.784 602.053C847.455 599.895 846.917 597.737 846.165 595.577C845.412 593.419 844.251 591.701 842.681 590.428C841.111 589.151 839.213 588.514 836.991 588.514C833.066 588.514 830.123 590.051 828.161 593.125C826.199 596.2 825.218 599.83 825.218 604.015C825.218 607.679 825.789 611.114 826.935 614.317C828.079 617.522 829.812 620.515 832.134 623.294C834.455 626.074 836.599 628.381 838.561 630.211C840.523 632.043 843.138 634.282 846.41 636.932C849.68 639.58 852.002 641.528 853.375 642.769C858.412 647.218 862.662 651.387 866.129 655.278C869.596 659.171 872.866 663.569 875.94 668.475C879.015 673.38 881.32 678.679 882.858 684.368C884.393 690.059 885.162 696.207 885.162 702.813C885.162 715.175 880.747 725.297 871.917 733.177C863.087 741.059 852.358 745 839.737 745C831.559 745 824.3 743.494 817.955 740.486C811.611 737.479 806.492 733.389 802.601 728.222C798.708 723.056 795.717 717.332 793.624 711.052C791.535 704.779 790.326 698.043 790 690.846Z" fill="black"/>
</svg>
